# xmcd
#
# Track frame offsets:
#	150
#	21400
#	42125
#	54275
#	71050
#	90112
#	106075
#	125900
#	145162
#	159250
#	178925
#	204812
#
# Disc length: 2991 seconds
#
# Revision: 2
# Processed by: cddbd v1.5.2PL0 Copyright (c) Steve Scherf et al.
# Submitted via: audiograbber 1.83.01
#
DISCID=990bad0c
DTITLE=Tom Pacheco - Bluefields
DYEAR=1995
DGENRE=Country
TTITLE0=Welcome to the end of the century
TTITLE1=Bluefields
TTITLE2=Big muddy river
TTITLE3=A fine homemade pie
TTITLE4=The last breath I breathe
TTITLE5=Sand
TTITLE6=If you only had a warmer heart
TTITLE7=Blue Montana sky
TTITLE8=Fine summer morning
TTITLE9=For old times
TTITLE10=Angel
TTITLE11=Red white and bleeding
EXTD=
EXTT0=
EXTT1=
EXTT2=
EXTT3=
EXTT4=
EXTT5=
EXTT6=
EXTT7=
EXTT8=
EXTT9=
EXTT10=
EXTT11=
PLAYORDER=
